<?xml version="1.0" encoding="UTF-8" standalone="no"?>
<!DOCTYPE svg PUBLIC "-//W3C//DTD SVG 1.1//EN" "http://www.w3.org/Graphics/SVG/1.1/DTD/svg11.dtd">
<svg width="100%" height="100%" viewBox="0 0 2494 1056" version="1.1" xmlns="http://www.w3.org/2000/svg" xmlns:xlink="http://www.w3.org/1999/xlink" xml:space="preserve" xmlns:serif="http://www.serif.com/" style="fill-rule:evenodd;clip-rule:evenodd;stroke-linejoin:round;stroke-miterlimit:2;">
    <g id="ArtBoard1" transform="matrix(0.936132,0,0,0.881617,123.415,-1765.33)">
        <rect x="-131.835" y="2002.37" width="2663.59" height="1196.69" style="fill:none;"/>
        <g id="Cluster" transform="matrix(0.94471,0,0,1.00313,147.137,-32.1464)">
            <g transform="matrix(1.10092,0,0,0.988748,-223.308,2158.6)">
                <path d="M2413.49,371.292C2413.49,360.312 2405.48,351.397 2395.62,351.397L2055.5,351.397C2045.64,351.397 2037.63,360.312 2037.63,371.292L2037.63,898.574C2037.63,909.555 2045.64,918.47 2055.5,918.47L2395.62,918.47C2405.48,918.47 2413.49,909.555 2413.49,898.574L2413.49,371.292Z" style="fill:rgb(248,248,248);"/>
            </g>
            <g id="Screenshot-2021-06-16-at-5.14.svg" transform="matrix(0.808254,0,0,0.808254,2226.84,2860.55)">
                <g transform="matrix(1,0,0,1,-43.2358,31.1315)">
                    <clipPath id="_clip1">
                        <rect x="-196.764" y="-78.632" width="480" height="95"/>
                    </clipPath>
                    <g clip-path="url(#_clip1)">
                        <g transform="matrix(1,0,0,1,-330.764,-260.632)">
                            <rect x="137" y="185" width="474" height="88" style="fill:rgb(6,20,72);fill-rule:nonzero;"/>
                            <path d="M136,274L136,184L612,184L612,274L136,274ZM161,272L161,252L182,252L182,206L172,205L162,205L161,196L161,187L152,187L151,209L151,232L144,232L138,233L138,242L144,242L151,243L151,256C151,263 151,270 152,271L152,272L161,272ZM196,269C197,268 199,263 201,259C204,255 206,251 206,250C206,250 203,245 200,239C197,234 194,229 194,228C194,228 196,224 198,220C202,213 203,212 203,206C202,199 201,196 196,189C194,187 193,186 190,186L186,186L186,272L195,272L196,269ZM243,271C243,270 236,257 234,255C233,253 231,253 223,253C214,253 212,253 211,255C209,257 201,270 201,271L201,272L243,272L243,271ZM320,271C320,270 318,266 315,262C310,254 310,254 300,253C292,253 289,253 288,255C286,256 278,269 278,271L278,272L320,272L320,271ZM397,271C397,271 389,257 387,255C386,253 384,253 376,253C367,253 365,253 364,255C361,258 355,269 355,271L355,272L397,272L397,271ZM468,267C461,254 462,255 452,255C442,255 442,255 440,260C438,263 436,266 435,268L433,271L433,270L432,270L432,271C433,272 438,272 452,272L471,272L468,267ZM550,271C550,270 542,256 540,255C539,253 537,253 528,253C519,254 519,254 515,260C514,263 512,267 511,268C510,269 509,270 509,271L509,272L550,272L550,271ZM596,272L596,187L591,186L586,186L586,228C586,252 586,271 587,271C587,272 589,272 591,272L596,272ZM272,268C275,265 282,252 282,251C282,248 278,241 274,236C271,232 271,232 261,232C251,232 250,232 248,234C245,238 239,249 239,250C239,252 247,266 249,269C250,270 253,270 260,270C269,270 271,270 272,268ZM426,268C429,264 435,253 435,250C435,248 428,235 425,233C424,231 422,231 413,231C403,232 403,232 397,240C394,245 392,250 392,250C392,251 394,254 396,258C404,271 402,270 413,270C423,270 424,270 426,268ZM563,270L563,232L560,231C558,231 556,231 555,232L554,233L555,234C555,235 553,239 549,243C545,248 546,249 552,261L557,270L563,270ZM349,267C352,264 359,252 359,250C359,249 351,235 349,233C348,231 346,231 338,231C328,231 327,231 325,233C322,236 316,248 316,250C316,252 322,264 325,267C327,269 328,269 338,269C346,269 348,269 349,267ZM504,259C507,255 509,251 509,250C509,250 507,246 504,242C500,234 500,234 491,234C481,234 481,234 476,242C471,251 471,250 478,261C481,267 481,267 490,267C500,267 500,267 504,259ZM311,245C313,243 321,229 321,228C321,228 319,223 316,218C310,210 310,210 299,210C288,210 288,210 282,218C279,223 277,228 277,228C277,229 285,243 287,245C288,247 290,247 299,247C308,247 310,247 311,245ZM392,239C395,234 397,230 397,229C397,227 392,218 388,212C386,209 386,209 376,209C364,209 365,209 358,220C353,228 353,229 356,233C357,234 358,236 358,236C358,237 359,239 361,242C364,247 364,247 376,247C387,247 387,247 392,239ZM466,240C467,237 470,233 471,232C474,229 474,227 470,220C463,208 464,209 452,209C441,210 441,210 435,219C432,223 430,228 430,228C430,229 439,244 440,246C441,247 444,247 452,247C462,247 462,247 466,240ZM545,239C548,234 550,229 550,228C550,227 548,222 545,218C540,210 540,210 529,209C517,209 518,208 512,219C508,226 507,228 509,230C510,231 512,235 514,238C516,242 518,246 519,246C519,247 524,247 530,247C541,247 541,247 545,239ZM235,243C237,242 239,238 241,234C244,228 244,228 241,223C240,220 237,215 236,213C233,210 233,209 226,209C219,209 217,209 216,211C214,212 212,213 211,214C208,215 201,225 201,228C201,231 205,239 209,243C212,246 212,246 223,246C232,246 233,246 235,243ZM354,216C357,211 359,207 359,206C359,205 351,191 349,189C348,187 346,187 337,187C326,187 326,187 321,196C318,200 316,205 316,206C316,208 319,213 325,223C326,225 327,225 337,225C349,225 349,225 354,216ZM430,217C433,212 435,208 435,206C435,205 433,200 430,196C425,188 425,188 414,188C403,188 403,188 397,196C394,201 392,205 392,206C392,207 399,220 402,223C403,225 405,225 414,225C425,225 425,225 430,217ZM273,221C277,218 282,209 282,207C282,206 280,202 278,198C272,186 273,187 261,187C250,188 250,188 247,191C246,193 243,197 242,201C239,206 239,206 241,211C243,214 246,218 247,220C250,224 250,224 260,224C270,224 271,224 273,221ZM503,222C504,221 506,218 508,214C512,208 513,204 511,203C511,202 509,200 508,197C503,187 502,187 490,187C479,187 479,187 474,196C471,201 469,205 469,206C469,208 475,219 478,222C479,224 481,224 491,224C500,224 502,224 503,222ZM562,224L562,188L557,188L556,190C556,191 554,194 552,198C550,202 548,205 548,206C548,207 550,211 553,216L557,224L562,224ZM315,196C317,192 319,188 319,187L319,186L279,186L279,187C279,188 285,199 287,201C288,203 290,203 299,203C310,203 310,203 315,196ZM465,200C467,197 472,189 472,187L472,186L432,186L432,187C432,189 436,195 439,199C442,202 442,202 453,202C462,202 463,202 465,200ZM236,194C238,191 240,188 240,187L205,187L205,188C205,188 206,190 208,193C210,196 211,197 213,197C214,197 216,198 217,199C218,201 219,201 225,201C232,201 232,201 236,194ZM388,195C390,192 392,188 392,188L392,187L359,187L359,188C359,188 361,191 363,195C366,201 366,201 376,201C385,201 385,201 388,195ZM542,195C544,191 546,188 546,188L546,187L512,187C512,188 514,191 516,195C519,201 519,201 529,201C538,201 538,201 542,195ZM161,248L161,227L162,209L170,208L179,208L179,249L162,249L161,248ZM548,246C549,245 549,244 550,244L549,246C548,247 548,248 547,248L548,246Z" style="fill:rgb(38,104,147);fill-rule:nonzero;"/>
                            <g transform="matrix(1,0,0,1.01064,220,140.482)">
                                <path d="M-86,41.102L394,41.081L394,135.081L-86,135.071L-86,41.102ZM253,131.081C254,129.081 247,116.081 244,113.081C241,110.081 242,109.081 246,102.081C248,99.081 251,94.081 253,90.081C256,84.081 256,84.081 270,84.081C285,84.081 285,84.081 288,91.081C291,97.081 295,103.081 298,108.081L299,109.081L298,111.081C295,115.081 287,130.081 287,131.081L287,132.081L328,132.081C351,132.081 374,132.081 380,131.081L391,131.081L391,45.081L379,45.081C364,44.081 -58,44.081 -72,45.081L-83,45.081L-83,88.081C-84,111.081 -84,130.081 -84,131.081C-83,132.081 -32,132.081 85,132.081L253,132.081L253,131.081ZM251,113.081L250,113.081L253,120.081C259,130.081 258,129.081 270,129.081C279,129.081 281,129.081 282,127.081C285,124.081 292,112.081 292,109.081C292,108.081 290,103.081 287,99.081C282,90.081 282,90.081 270,90.081C258,90.081 258,90.081 253,100.081L252,103.081L254,101.081L256,100.081L254,102.081C251,105.081 250,108.081 250,110.081C250,110.519 250.191,110.956 250.407,111.394L250.593,111.769C250.793,112.175 250.973,112.581 250.997,112.987L251,113.081Z" style="fill:rgb(84,157,203);fill-rule:nonzero;"/>
                            </g>
                        </g>
                    </g>
                </g>
            </g>
            <g id="Screenshot-2021-06-16-at-5.14.svg1" serif:id="Screenshot-2021-06-16-at-5.14.svg" transform="matrix(0.808254,0,0,0.808254,2226.84,2558.33)">
                <g transform="matrix(1,0,0,1,-43.2358,31.1315)">
                    <clipPath id="_clip2">
                        <rect x="-196.764" y="-78.632" width="480" height="95"/>
                    </clipPath>
                    <g clip-path="url(#_clip2)">
                        <g transform="matrix(1,0,0,1,-330.764,-260.632)">
                            <rect x="137" y="185" width="474" height="88" style="fill:rgb(6,20,72);fill-rule:nonzero;"/>
                            <path d="M136,274L136,184L612,184L612,274L136,274ZM161,272L161,252L182,252L182,206L172,205L162,205L161,196L161,187L152,187L151,209L151,232L144,232L138,233L138,242L144,242L151,243L151,256C151,263 151,270 152,271L152,272L161,272ZM196,269C197,268 199,263 201,259C204,255 206,251 206,250C206,250 203,245 200,239C197,234 194,229 194,228C194,228 196,224 198,220C202,213 203,212 203,206C202,199 201,196 196,189C194,187 193,186 190,186L186,186L186,272L195,272L196,269ZM243,271C243,270 236,257 234,255C233,253 231,253 223,253C214,253 212,253 211,255C209,257 201,270 201,271L201,272L243,272L243,271ZM320,271C320,270 318,266 315,262C310,254 310,254 300,253C292,253 289,253 288,255C286,256 278,269 278,271L278,272L320,272L320,271ZM397,271C397,271 389,257 387,255C386,253 384,253 376,253C367,253 365,253 364,255C361,258 355,269 355,271L355,272L397,272L397,271ZM468,267C461,254 462,255 452,255C442,255 442,255 440,260C438,263 436,266 435,268L433,271L433,270L432,270L432,271C433,272 438,272 452,272L471,272L468,267ZM550,271C550,270 542,256 540,255C539,253 537,253 528,253C519,254 519,254 515,260C514,263 512,267 511,268C510,269 509,270 509,271L509,272L550,272L550,271ZM596,272L596,187L591,186L586,186L586,228C586,252 586,271 587,271C587,272 589,272 591,272L596,272ZM272,268C275,265 282,252 282,251C282,248 278,241 274,236C271,232 271,232 261,232C251,232 250,232 248,234C245,238 239,249 239,250C239,252 247,266 249,269C250,270 253,270 260,270C269,270 271,270 272,268ZM426,268C429,264 435,253 435,250C435,248 428,235 425,233C424,231 422,231 413,231C403,232 403,232 397,240C394,245 392,250 392,250C392,251 394,254 396,258C404,271 402,270 413,270C423,270 424,270 426,268ZM563,270L563,232L560,231C558,231 556,231 555,232L554,233L555,234C555,235 553,239 549,243C545,248 546,249 552,261L557,270L563,270ZM349,267C352,264 359,252 359,250C359,249 351,235 349,233C348,231 346,231 338,231C328,231 327,231 325,233C322,236 316,248 316,250C316,252 322,264 325,267C327,269 328,269 338,269C346,269 348,269 349,267ZM504,259C507,255 509,251 509,250C509,250 507,246 504,242C500,234 500,234 491,234C481,234 481,234 476,242C471,251 471,250 478,261C481,267 481,267 490,267C500,267 500,267 504,259ZM311,245C313,243 321,229 321,228C321,228 319,223 316,218C310,210 310,210 299,210C288,210 288,210 282,218C279,223 277,228 277,228C277,229 285,243 287,245C288,247 290,247 299,247C308,247 310,247 311,245ZM392,239C395,234 397,230 397,229C397,227 392,218 388,212C386,209 386,209 376,209C364,209 365,209 358,220C353,228 353,229 356,233C357,234 358,236 358,236C358,237 359,239 361,242C364,247 364,247 376,247C387,247 387,247 392,239ZM466,240C467,237 470,233 471,232C474,229 474,227 470,220C463,208 464,209 452,209C441,210 441,210 435,219C432,223 430,228 430,228C430,229 439,244 440,246C441,247 444,247 452,247C462,247 462,247 466,240ZM545,239C548,234 550,229 550,228C550,227 548,222 545,218C540,210 540,210 529,209C517,209 518,208 512,219C508,226 507,228 509,230C510,231 512,235 514,238C516,242 518,246 519,246C519,247 524,247 530,247C541,247 541,247 545,239ZM235,243C237,242 239,238 241,234C244,228 244,228 241,223C240,220 237,215 236,213C233,210 233,209 226,209C219,209 217,209 216,211C214,212 212,213 211,214C208,215 201,225 201,228C201,231 205,239 209,243C212,246 212,246 223,246C232,246 233,246 235,243ZM354,216C357,211 359,207 359,206C359,205 351,191 349,189C348,187 346,187 337,187C326,187 326,187 321,196C318,200 316,205 316,206C316,208 319,213 325,223C326,225 327,225 337,225C349,225 349,225 354,216ZM430,217C433,212 435,208 435,206C435,205 433,200 430,196C425,188 425,188 414,188C403,188 403,188 397,196C394,201 392,205 392,206C392,207 399,220 402,223C403,225 405,225 414,225C425,225 425,225 430,217ZM273,221C277,218 282,209 282,207C282,206 280,202 278,198C272,186 273,187 261,187C250,188 250,188 247,191C246,193 243,197 242,201C239,206 239,206 241,211C243,214 246,218 247,220C250,224 250,224 260,224C270,224 271,224 273,221ZM503,222C504,221 506,218 508,214C512,208 513,204 511,203C511,202 509,200 508,197C503,187 502,187 490,187C479,187 479,187 474,196C471,201 469,205 469,206C469,208 475,219 478,222C479,224 481,224 491,224C500,224 502,224 503,222ZM562,224L562,188L557,188L556,190C556,191 554,194 552,198C550,202 548,205 548,206C548,207 550,211 553,216L557,224L562,224ZM315,196C317,192 319,188 319,187L319,186L279,186L279,187C279,188 285,199 287,201C288,203 290,203 299,203C310,203 310,203 315,196ZM465,200C467,197 472,189 472,187L472,186L432,186L432,187C432,189 436,195 439,199C442,202 442,202 453,202C462,202 463,202 465,200ZM236,194C238,191 240,188 240,187L205,187L205,188C205,188 206,190 208,193C210,196 211,197 213,197C214,197 216,198 217,199C218,201 219,201 225,201C232,201 232,201 236,194ZM388,195C390,192 392,188 392,188L392,187L359,187L359,188C359,188 361,191 363,195C366,201 366,201 376,201C385,201 385,201 388,195ZM542,195C544,191 546,188 546,188L546,187L512,187C512,188 514,191 516,195C519,201 519,201 529,201C538,201 538,201 542,195ZM161,248L161,227L162,209L170,208L179,208L179,249L162,249L161,248ZM548,246C549,245 549,244 550,244L549,246C548,247 548,248 547,248L548,246Z" style="fill:rgb(38,104,147);fill-rule:nonzero;"/>
                            <g transform="matrix(1,0,0,1.01064,220,140.482)">
                                <path d="M-86,41.102L394,41.081L394,135.081L-86,135.071L-86,41.102ZM253,131.081C254,129.081 247,116.081 244,113.081C241,110.081 242,109.081 246,102.081C248,99.081 251,94.081 253,90.081C256,84.081 256,84.081 270,84.081C285,84.081 285,84.081 288,91.081C291,97.081 295,103.081 298,108.081L299,109.081L298,111.081C295,115.081 287,130.081 287,131.081L287,132.081L328,132.081C351,132.081 374,132.081 380,131.081L391,131.081L391,45.081L379,45.081C364,44.081 -58,44.081 -72,45.081L-83,45.081L-83,88.081C-84,111.081 -84,130.081 -84,131.081C-83,132.081 -32,132.081 85,132.081L253,132.081L253,131.081ZM251,113.081L250,113.081L253,120.081C259,130.081 258,129.081 270,129.081C279,129.081 281,129.081 282,127.081C285,124.081 292,112.081 292,109.081C292,108.081 290,103.081 287,99.081C282,90.081 282,90.081 270,90.081C258,90.081 258,90.081 253,100.081L252,103.081L254,101.081L256,100.081L254,102.081C251,105.081 250,108.081 250,110.081C250,110.519 250.191,110.956 250.407,111.394L250.593,111.769C250.793,112.175 250.973,112.581 250.997,112.987L251,113.081Z" style="fill:rgb(84,157,203);fill-rule:nonzero;"/>
                            </g>
                        </g>
                    </g>
                </g>
            </g>
            <g id="Screenshot-2021-06-16-at-5.14.svg2" serif:id="Screenshot-2021-06-16-at-5.14.svg" transform="matrix(0.808254,0,0,0.808254,2226.84,2633.88)">
                <g transform="matrix(1,0,0,1,-43.2358,31.1315)">
                    <clipPath id="_clip3">
                        <rect x="-196.764" y="-78.632" width="480" height="95"/>
                    </clipPath>
                    <g clip-path="url(#_clip3)">
                        <g transform="matrix(1,0,0,1,-330.764,-260.632)">
                            <rect x="137" y="185" width="474" height="88" style="fill:rgb(6,20,72);fill-rule:nonzero;"/>
                            <path d="M136,274L136,184L612,184L612,274L136,274ZM161,272L161,252L182,252L182,206L172,205L162,205L161,196L161,187L152,187L151,209L151,232L144,232L138,233L138,242L144,242L151,243L151,256C151,263 151,270 152,271L152,272L161,272ZM196,269C197,268 199,263 201,259C204,255 206,251 206,250C206,250 203,245 200,239C197,234 194,229 194,228C194,228 196,224 198,220C202,213 203,212 203,206C202,199 201,196 196,189C194,187 193,186 190,186L186,186L186,272L195,272L196,269ZM243,271C243,270 236,257 234,255C233,253 231,253 223,253C214,253 212,253 211,255C209,257 201,270 201,271L201,272L243,272L243,271ZM320,271C320,270 318,266 315,262C310,254 310,254 300,253C292,253 289,253 288,255C286,256 278,269 278,271L278,272L320,272L320,271ZM397,271C397,271 389,257 387,255C386,253 384,253 376,253C367,253 365,253 364,255C361,258 355,269 355,271L355,272L397,272L397,271ZM468,267C461,254 462,255 452,255C442,255 442,255 440,260C438,263 436,266 435,268L433,271L433,270L432,270L432,271C433,272 438,272 452,272L471,272L468,267ZM550,271C550,270 542,256 540,255C539,253 537,253 528,253C519,254 519,254 515,260C514,263 512,267 511,268C510,269 509,270 509,271L509,272L550,272L550,271ZM596,272L596,187L591,186L586,186L586,228C586,252 586,271 587,271C587,272 589,272 591,272L596,272ZM272,268C275,265 282,252 282,251C282,248 278,241 274,236C271,232 271,232 261,232C251,232 250,232 248,234C245,238 239,249 239,250C239,252 247,266 249,269C250,270 253,270 260,270C269,270 271,270 272,268ZM426,268C429,264 435,253 435,250C435,248 428,235 425,233C424,231 422,231 413,231C403,232 403,232 397,240C394,245 392,250 392,250C392,251 394,254 396,258C404,271 402,270 413,270C423,270 424,270 426,268ZM563,270L563,232L560,231C558,231 556,231 555,232L554,233L555,234C555,235 553,239 549,243C545,248 546,249 552,261L557,270L563,270ZM349,267C352,264 359,252 359,250C359,249 351,235 349,233C348,231 346,231 338,231C328,231 327,231 325,233C322,236 316,248 316,250C316,252 322,264 325,267C327,269 328,269 338,269C346,269 348,269 349,267ZM504,259C507,255 509,251 509,250C509,250 507,246 504,242C500,234 500,234 491,234C481,234 481,234 476,242C471,251 471,250 478,261C481,267 481,267 490,267C500,267 500,267 504,259ZM311,245C313,243 321,229 321,228C321,228 319,223 316,218C310,210 310,210 299,210C288,210 288,210 282,218C279,223 277,228 277,228C277,229 285,243 287,245C288,247 290,247 299,247C308,247 310,247 311,245ZM392,239C395,234 397,230 397,229C397,227 392,218 388,212C386,209 386,209 376,209C364,209 365,209 358,220C353,228 353,229 356,233C357,234 358,236 358,236C358,237 359,239 361,242C364,247 364,247 376,247C387,247 387,247 392,239ZM466,240C467,237 470,233 471,232C474,229 474,227 470,220C463,208 464,209 452,209C441,210 441,210 435,219C432,223 430,228 430,228C430,229 439,244 440,246C441,247 444,247 452,247C462,247 462,247 466,240ZM545,239C548,234 550,229 550,228C550,227 548,222 545,218C540,210 540,210 529,209C517,209 518,208 512,219C508,226 507,228 509,230C510,231 512,235 514,238C516,242 518,246 519,246C519,247 524,247 530,247C541,247 541,247 545,239ZM235,243C237,242 239,238 241,234C244,228 244,228 241,223C240,220 237,215 236,213C233,210 233,209 226,209C219,209 217,209 216,211C214,212 212,213 211,214C208,215 201,225 201,228C201,231 205,239 209,243C212,246 212,246 223,246C232,246 233,246 235,243ZM354,216C357,211 359,207 359,206C359,205 351,191 349,189C348,187 346,187 337,187C326,187 326,187 321,196C318,200 316,205 316,206C316,208 319,213 325,223C326,225 327,225 337,225C349,225 349,225 354,216ZM430,217C433,212 435,208 435,206C435,205 433,200 430,196C425,188 425,188 414,188C403,188 403,188 397,196C394,201 392,205 392,206C392,207 399,220 402,223C403,225 405,225 414,225C425,225 425,225 430,217ZM273,221C277,218 282,209 282,207C282,206 280,202 278,198C272,186 273,187 261,187C250,188 250,188 247,191C246,193 243,197 242,201C239,206 239,206 241,211C243,214 246,218 247,220C250,224 250,224 260,224C270,224 271,224 273,221ZM503,222C504,221 506,218 508,214C512,208 513,204 511,203C511,202 509,200 508,197C503,187 502,187 490,187C479,187 479,187 474,196C471,201 469,205 469,206C469,208 475,219 478,222C479,224 481,224 491,224C500,224 502,224 503,222ZM562,224L562,188L557,188L556,190C556,191 554,194 552,198C550,202 548,205 548,206C548,207 550,211 553,216L557,224L562,224ZM315,196C317,192 319,188 319,187L319,186L279,186L279,187C279,188 285,199 287,201C288,203 290,203 299,203C310,203 310,203 315,196ZM465,200C467,197 472,189 472,187L472,186L432,186L432,187C432,189 436,195 439,199C442,202 442,202 453,202C462,202 463,202 465,200ZM236,194C238,191 240,188 240,187L205,187L205,188C205,188 206,190 208,193C210,196 211,197 213,197C214,197 216,198 217,199C218,201 219,201 225,201C232,201 232,201 236,194ZM388,195C390,192 392,188 392,188L392,187L359,187L359,188C359,188 361,191 363,195C366,201 366,201 376,201C385,201 385,201 388,195ZM542,195C544,191 546,188 546,188L546,187L512,187C512,188 514,191 516,195C519,201 519,201 529,201C538,201 538,201 542,195ZM161,248L161,227L162,209L170,208L179,208L179,249L162,249L161,248ZM548,246C549,245 549,244 550,244L549,246C548,247 548,248 547,248L548,246Z" style="fill:rgb(38,104,147);fill-rule:nonzero;"/>
                            <g transform="matrix(1,0,0,1.01064,220,140.482)">
                                <path d="M-86,41.102L394,41.081L394,135.081L-86,135.071L-86,41.102ZM253,131.081C254,129.081 247,116.081 244,113.081C241,110.081 242,109.081 246,102.081C248,99.081 251,94.081 253,90.081C256,84.081 256,84.081 270,84.081C285,84.081 285,84.081 288,91.081C291,97.081 295,103.081 298,108.081L299,109.081L298,111.081C295,115.081 287,130.081 287,131.081L287,132.081L328,132.081C351,132.081 374,132.081 380,131.081L391,131.081L391,45.081L379,45.081C364,44.081 -58,44.081 -72,45.081L-83,45.081L-83,88.081C-84,111.081 -84,130.081 -84,131.081C-83,132.081 -32,132.081 85,132.081L253,132.081L253,131.081ZM251,113.081L250,113.081L253,120.081C259,130.081 258,129.081 270,129.081C279,129.081 281,129.081 282,127.081C285,124.081 292,112.081 292,109.081C292,108.081 290,103.081 287,99.081C282,90.081 282,90.081 270,90.081C258,90.081 258,90.081 253,100.081L252,103.081L254,101.081L256,100.081L254,102.081C251,105.081 250,108.081 250,110.081C250,110.519 250.191,110.956 250.407,111.394L250.593,111.769C250.793,112.175 250.973,112.581 250.997,112.987L251,113.081Z" style="fill:rgb(84,157,203);fill-rule:nonzero;"/>
                            </g>
                        </g>
                    </g>
                </g>
            </g>
            <g id="Screenshot-2021-06-16-at-5.14.svg3" serif:id="Screenshot-2021-06-16-at-5.14.svg" transform="matrix(0.808254,0,0,0.808254,2226.84,2936.11)">
                <g transform="matrix(1,0,0,1,-43.2358,31.1315)">
                    <clipPath id="_clip4">
                        <rect x="-196.764" y="-78.632" width="480" height="95"/>
                    </clipPath>
                    <g clip-path="url(#_clip4)">
                        <g transform="matrix(1,0,0,1,-330.764,-260.632)">
                            <rect x="137" y="185" width="474" height="88" style="fill:rgb(6,20,72);fill-rule:nonzero;"/>
                            <path d="M136,274L136,184L612,184L612,274L136,274ZM161,272L161,252L182,252L182,206L172,205L162,205L161,196L161,187L152,187L151,209L151,232L144,232L138,233L138,242L144,242L151,243L151,256C151,263 151,270 152,271L152,272L161,272ZM196,269C197,268 199,263 201,259C204,255 206,251 206,250C206,250 203,245 200,239C197,234 194,229 194,228C194,228 196,224 198,220C202,213 203,212 203,206C202,199 201,196 196,189C194,187 193,186 190,186L186,186L186,272L195,272L196,269ZM243,271C243,270 236,257 234,255C233,253 231,253 223,253C214,253 212,253 211,255C209,257 201,270 201,271L201,272L243,272L243,271ZM320,271C320,270 318,266 315,262C310,254 310,254 300,253C292,253 289,253 288,255C286,256 278,269 278,271L278,272L320,272L320,271ZM397,271C397,271 389,257 387,255C386,253 384,253 376,253C367,253 365,253 364,255C361,258 355,269 355,271L355,272L397,272L397,271ZM468,267C461,254 462,255 452,255C442,255 442,255 440,260C438,263 436,266 435,268L433,271L433,270L432,270L432,271C433,272 438,272 452,272L471,272L468,267ZM550,271C550,270 542,256 540,255C539,253 537,253 528,253C519,254 519,254 515,260C514,263 512,267 511,268C510,269 509,270 509,271L509,272L550,272L550,271ZM596,272L596,187L591,186L586,186L586,228C586,252 586,271 587,271C587,272 589,272 591,272L596,272ZM272,268C275,265 282,252 282,251C282,248 278,241 274,236C271,232 271,232 261,232C251,232 250,232 248,234C245,238 239,249 239,250C239,252 247,266 249,269C250,270 253,270 260,270C269,270 271,270 272,268ZM426,268C429,264 435,253 435,250C435,248 428,235 425,233C424,231 422,231 413,231C403,232 403,232 397,240C394,245 392,250 392,250C392,251 394,254 396,258C404,271 402,270 413,270C423,270 424,270 426,268ZM563,270L563,232L560,231C558,231 556,231 555,232L554,233L555,234C555,235 553,239 549,243C545,248 546,249 552,261L557,270L563,270ZM349,267C352,264 359,252 359,250C359,249 351,235 349,233C348,231 346,231 338,231C328,231 327,231 325,233C322,236 316,248 316,250C316,252 322,264 325,267C327,269 328,269 338,269C346,269 348,269 349,267ZM504,259C507,255 509,251 509,250C509,250 507,246 504,242C500,234 500,234 491,234C481,234 481,234 476,242C471,251 471,250 478,261C481,267 481,267 490,267C500,267 500,267 504,259ZM311,245C313,243 321,229 321,228C321,228 319,223 316,218C310,210 310,210 299,210C288,210 288,210 282,218C279,223 277,228 277,228C277,229 285,243 287,245C288,247 290,247 299,247C308,247 310,247 311,245ZM392,239C395,234 397,230 397,229C397,227 392,218 388,212C386,209 386,209 376,209C364,209 365,209 358,220C353,228 353,229 356,233C357,234 358,236 358,236C358,237 359,239 361,242C364,247 364,247 376,247C387,247 387,247 392,239ZM466,240C467,237 470,233 471,232C474,229 474,227 470,220C463,208 464,209 452,209C441,210 441,210 435,219C432,223 430,228 430,228C430,229 439,244 440,246C441,247 444,247 452,247C462,247 462,247 466,240ZM545,239C548,234 550,229 550,228C550,227 548,222 545,218C540,210 540,210 529,209C517,209 518,208 512,219C508,226 507,228 509,230C510,231 512,235 514,238C516,242 518,246 519,246C519,247 524,247 530,247C541,247 541,247 545,239ZM235,243C237,242 239,238 241,234C244,228 244,228 241,223C240,220 237,215 236,213C233,210 233,209 226,209C219,209 217,209 216,211C214,212 212,213 211,214C208,215 201,225 201,228C201,231 205,239 209,243C212,246 212,246 223,246C232,246 233,246 235,243ZM354,216C357,211 359,207 359,206C359,205 351,191 349,189C348,187 346,187 337,187C326,187 326,187 321,196C318,200 316,205 316,206C316,208 319,213 325,223C326,225 327,225 337,225C349,225 349,225 354,216ZM430,217C433,212 435,208 435,206C435,205 433,200 430,196C425,188 425,188 414,188C403,188 403,188 397,196C394,201 392,205 392,206C392,207 399,220 402,223C403,225 405,225 414,225C425,225 425,225 430,217ZM273,221C277,218 282,209 282,207C282,206 280,202 278,198C272,186 273,187 261,187C250,188 250,188 247,191C246,193 243,197 242,201C239,206 239,206 241,211C243,214 246,218 247,220C250,224 250,224 260,224C270,224 271,224 273,221ZM503,222C504,221 506,218 508,214C512,208 513,204 511,203C511,202 509,200 508,197C503,187 502,187 490,187C479,187 479,187 474,196C471,201 469,205 469,206C469,208 475,219 478,222C479,224 481,224 491,224C500,224 502,224 503,222ZM562,224L562,188L557,188L556,190C556,191 554,194 552,198C550,202 548,205 548,206C548,207 550,211 553,216L557,224L562,224ZM315,196C317,192 319,188 319,187L319,186L279,186L279,187C279,188 285,199 287,201C288,203 290,203 299,203C310,203 310,203 315,196ZM465,200C467,197 472,189 472,187L472,186L432,186L432,187C432,189 436,195 439,199C442,202 442,202 453,202C462,202 463,202 465,200ZM236,194C238,191 240,188 240,187L205,187L205,188C205,188 206,190 208,193C210,196 211,197 213,197C214,197 216,198 217,199C218,201 219,201 225,201C232,201 232,201 236,194ZM388,195C390,192 392,188 392,188L392,187L359,187L359,188C359,188 361,191 363,195C366,201 366,201 376,201C385,201 385,201 388,195ZM542,195C544,191 546,188 546,188L546,187L512,187C512,188 514,191 516,195C519,201 519,201 529,201C538,201 538,201 542,195ZM161,248L161,227L162,209L170,208L179,208L179,249L162,249L161,248ZM548,246C549,245 549,244 550,244L549,246C548,247 548,248 547,248L548,246Z" style="fill:rgb(38,104,147);fill-rule:nonzero;"/>
                            <g transform="matrix(1,0,0,1.01064,220,140.482)">
                                <path d="M-86,41.102L394,41.081L394,135.081L-86,135.071L-86,41.102ZM253,131.081C254,129.081 247,116.081 244,113.081C241,110.081 242,109.081 246,102.081C248,99.081 251,94.081 253,90.081C256,84.081 256,84.081 270,84.081C285,84.081 285,84.081 288,91.081C291,97.081 295,103.081 298,108.081L299,109.081L298,111.081C295,115.081 287,130.081 287,131.081L287,132.081L328,132.081C351,132.081 374,132.081 380,131.081L391,131.081L391,45.081L379,45.081C364,44.081 -58,44.081 -72,45.081L-83,45.081L-83,88.081C-84,111.081 -84,130.081 -84,131.081C-83,132.081 -32,132.081 85,132.081L253,132.081L253,131.081ZM251,113.081L250,113.081L253,120.081C259,130.081 258,129.081 270,129.081C279,129.081 281,129.081 282,127.081C285,124.081 292,112.081 292,109.081C292,108.081 290,103.081 287,99.081C282,90.081 282,90.081 270,90.081C258,90.081 258,90.081 253,100.081L252,103.081L254,101.081L256,100.081L254,102.081C251,105.081 250,108.081 250,110.081C250,110.519 250.191,110.956 250.407,111.394L250.593,111.769C250.793,112.175 250.973,112.581 250.997,112.987L251,113.081Z" style="fill:rgb(84,157,203);fill-rule:nonzero;"/>
                            </g>
                        </g>
                    </g>
                </g>
            </g>
            <g id="Screenshot-2021-06-16-at-5.14.svg4" serif:id="Screenshot-2021-06-16-at-5.14.svg" transform="matrix(0.808254,0,0,0.808254,2226.84,3011.93)">
                <g transform="matrix(1,0,0,1,-43.2358,31.1315)">
                    <clipPath id="_clip5">
                        <rect x="-196.764" y="-78.632" width="480" height="95"/>
                    </clipPath>
                    <g clip-path="url(#_clip5)">
                        <g transform="matrix(1,0,0,1,-330.764,-260.632)">
                            <rect x="137" y="185" width="474" height="88" style="fill:rgb(6,20,72);fill-rule:nonzero;"/>
                            <path d="M136,274L136,184L612,184L612,274L136,274ZM161,272L161,252L182,252L182,206L172,205L162,205L161,196L161,187L152,187L151,209L151,232L144,232L138,233L138,242L144,242L151,243L151,256C151,263 151,270 152,271L152,272L161,272ZM196,269C197,268 199,263 201,259C204,255 206,251 206,250C206,250 203,245 200,239C197,234 194,229 194,228C194,228 196,224 198,220C202,213 203,212 203,206C202,199 201,196 196,189C194,187 193,186 190,186L186,186L186,272L195,272L196,269ZM243,271C243,270 236,257 234,255C233,253 231,253 223,253C214,253 212,253 211,255C209,257 201,270 201,271L201,272L243,272L243,271ZM320,271C320,270 318,266 315,262C310,254 310,254 300,253C292,253 289,253 288,255C286,256 278,269 278,271L278,272L320,272L320,271ZM397,271C397,271 389,257 387,255C386,253 384,253 376,253C367,253 365,253 364,255C361,258 355,269 355,271L355,272L397,272L397,271ZM468,267C461,254 462,255 452,255C442,255 442,255 440,260C438,263 436,266 435,268L433,271L433,270L432,270L432,271C433,272 438,272 452,272L471,272L468,267ZM550,271C550,270 542,256 540,255C539,253 537,253 528,253C519,254 519,254 515,260C514,263 512,267 511,268C510,269 509,270 509,271L509,272L550,272L550,271ZM596,272L596,187L591,186L586,186L586,228C586,252 586,271 587,271C587,272 589,272 591,272L596,272ZM272,268C275,265 282,252 282,251C282,248 278,241 274,236C271,232 271,232 261,232C251,232 250,232 248,234C245,238 239,249 239,250C239,252 247,266 249,269C250,270 253,270 260,270C269,270 271,270 272,268ZM426,268C429,264 435,253 435,250C435,248 428,235 425,233C424,231 422,231 413,231C403,232 403,232 397,240C394,245 392,250 392,250C392,251 394,254 396,258C404,271 402,270 413,270C423,270 424,270 426,268ZM563,270L563,232L560,231C558,231 556,231 555,232L554,233L555,234C555,235 553,239 549,243C545,248 546,249 552,261L557,270L563,270ZM349,267C352,264 359,252 359,250C359,249 351,235 349,233C348,231 346,231 338,231C328,231 327,231 325,233C322,236 316,248 316,250C316,252 322,264 325,267C327,269 328,269 338,269C346,269 348,269 349,267ZM504,259C507,255 509,251 509,250C509,250 507,246 504,242C500,234 500,234 491,234C481,234 481,234 476,242C471,251 471,250 478,261C481,267 481,267 490,267C500,267 500,267 504,259ZM311,245C313,243 321,229 321,228C321,228 319,223 316,218C310,210 310,210 299,210C288,210 288,210 282,218C279,223 277,228 277,228C277,229 285,243 287,245C288,247 290,247 299,247C308,247 310,247 311,245ZM392,239C395,234 397,230 397,229C397,227 392,218 388,212C386,209 386,209 376,209C364,209 365,209 358,220C353,228 353,229 356,233C357,234 358,236 358,236C358,237 359,239 361,242C364,247 364,247 376,247C387,247 387,247 392,239ZM466,240C467,237 470,233 471,232C474,229 474,227 470,220C463,208 464,209 452,209C441,210 441,210 435,219C432,223 430,228 430,228C430,229 439,244 440,246C441,247 444,247 452,247C462,247 462,247 466,240ZM545,239C548,234 550,229 550,228C550,227 548,222 545,218C540,210 540,210 529,209C517,209 518,208 512,219C508,226 507,228 509,230C510,231 512,235 514,238C516,242 518,246 519,246C519,247 524,247 530,247C541,247 541,247 545,239ZM235,243C237,242 239,238 241,234C244,228 244,228 241,223C240,220 237,215 236,213C233,210 233,209 226,209C219,209 217,209 216,211C214,212 212,213 211,214C208,215 201,225 201,228C201,231 205,239 209,243C212,246 212,246 223,246C232,246 233,246 235,243ZM354,216C357,211 359,207 359,206C359,205 351,191 349,189C348,187 346,187 337,187C326,187 326,187 321,196C318,200 316,205 316,206C316,208 319,213 325,223C326,225 327,225 337,225C349,225 349,225 354,216ZM430,217C433,212 435,208 435,206C435,205 433,200 430,196C425,188 425,188 414,188C403,188 403,188 397,196C394,201 392,205 392,206C392,207 399,220 402,223C403,225 405,225 414,225C425,225 425,225 430,217ZM273,221C277,218 282,209 282,207C282,206 280,202 278,198C272,186 273,187 261,187C250,188 250,188 247,191C246,193 243,197 242,201C239,206 239,206 241,211C243,214 246,218 247,220C250,224 250,224 260,224C270,224 271,224 273,221ZM503,222C504,221 506,218 508,214C512,208 513,204 511,203C511,202 509,200 508,197C503,187 502,187 490,187C479,187 479,187 474,196C471,201 469,205 469,206C469,208 475,219 478,222C479,224 481,224 491,224C500,224 502,224 503,222ZM562,224L562,188L557,188L556,190C556,191 554,194 552,198C550,202 548,205 548,206C548,207 550,211 553,216L557,224L562,224ZM315,196C317,192 319,188 319,187L319,186L279,186L279,187C279,188 285,199 287,201C288,203 290,203 299,203C310,203 310,203 315,196ZM465,200C467,197 472,189 472,187L472,186L432,186L432,187C432,189 436,195 439,199C442,202 442,202 453,202C462,202 463,202 465,200ZM236,194C238,191 240,188 240,187L205,187L205,188C205,188 206,190 208,193C210,196 211,197 213,197C214,197 216,198 217,199C218,201 219,201 225,201C232,201 232,201 236,194ZM388,195C390,192 392,188 392,188L392,187L359,187L359,188C359,188 361,191 363,195C366,201 366,201 376,201C385,201 385,201 388,195ZM542,195C544,191 546,188 546,188L546,187L512,187C512,188 514,191 516,195C519,201 519,201 529,201C538,201 538,201 542,195ZM161,248L161,227L162,209L170,208L179,208L179,249L162,249L161,248ZM548,246C549,245 549,244 550,244L549,246C548,247 548,248 547,248L548,246Z" style="fill:rgb(38,104,147);fill-rule:nonzero;"/>
                            <g transform="matrix(1,0,0,1.01064,220,140.482)">
                                <path d="M-86,41.102L394,41.081L394,135.081L-86,135.071L-86,41.102ZM253,131.081C254,129.081 247,116.081 244,113.081C241,110.081 242,109.081 246,102.081C248,99.081 251,94.081 253,90.081C256,84.081 256,84.081 270,84.081C285,84.081 285,84.081 288,91.081C291,97.081 295,103.081 298,108.081L299,109.081L298,111.081C295,115.081 287,130.081 287,131.081L287,132.081L328,132.081C351,132.081 374,132.081 380,131.081L391,131.081L391,45.081L379,45.081C364,44.081 -58,44.081 -72,45.081L-83,45.081L-83,88.081C-84,111.081 -84,130.081 -84,131.081C-83,132.081 -32,132.081 85,132.081L253,132.081L253,131.081ZM251,113.081L250,113.081L253,120.081C259,130.081 258,129.081 270,129.081C279,129.081 281,129.081 282,127.081C285,124.081 292,112.081 292,109.081C292,108.081 290,103.081 287,99.081C282,90.081 282,90.081 270,90.081C258,90.081 258,90.081 253,100.081L252,103.081L254,101.081L256,100.081L254,102.081C251,105.081 250,108.081 250,110.081C250,110.519 250.191,110.956 250.407,111.394L250.593,111.769C250.793,112.175 250.973,112.581 250.997,112.987L251,113.081Z" style="fill:rgb(84,157,203);fill-rule:nonzero;"/>
                            </g>
                        </g>
                    </g>
                </g>
            </g>
            <g id="Screenshot-2021-06-16-at-5.14.svg5" serif:id="Screenshot-2021-06-16-at-5.14.svg" transform="matrix(0.808254,0,0,0.808254,2226.84,2785)">
                <g transform="matrix(1,0,0,1,-43.2358,31.1315)">
                    <clipPath id="_clip6">
                        <rect x="-196.764" y="-78.632" width="480" height="95"/>
                    </clipPath>
                    <g clip-path="url(#_clip6)">
                        <g transform="matrix(1,0,0,1,-330.764,-260.632)">
                            <rect x="137" y="185" width="474" height="88" style="fill:rgb(6,20,72);fill-rule:nonzero;"/>
                            <path d="M136,274L136,184L612,184L612,274L136,274ZM161,272L161,252L182,252L182,206L172,205L162,205L161,196L161,187L152,187L151,209L151,232L144,232L138,233L138,242L144,242L151,243L151,256C151,263 151,270 152,271L152,272L161,272ZM196,269C197,268 199,263 201,259C204,255 206,251 206,250C206,250 203,245 200,239C197,234 194,229 194,228C194,228 196,224 198,220C202,213 203,212 203,206C202,199 201,196 196,189C194,187 193,186 190,186L186,186L186,272L195,272L196,269ZM243,271C243,270 236,257 234,255C233,253 231,253 223,253C214,253 212,253 211,255C209,257 201,270 201,271L201,272L243,272L243,271ZM320,271C320,270 318,266 315,262C310,254 310,254 300,253C292,253 289,253 288,255C286,256 278,269 278,271L278,272L320,272L320,271ZM397,271C397,271 389,257 387,255C386,253 384,253 376,253C367,253 365,253 364,255C361,258 355,269 355,271L355,272L397,272L397,271ZM468,267C461,254 462,255 452,255C442,255 442,255 440,260C438,263 436,266 435,268L433,271L433,270L432,270L432,271C433,272 438,272 452,272L471,272L468,267ZM550,271C550,270 542,256 540,255C539,253 537,253 528,253C519,254 519,254 515,260C514,263 512,267 511,268C510,269 509,270 509,271L509,272L550,272L550,271ZM596,272L596,187L591,186L586,186L586,228C586,252 586,271 587,271C587,272 589,272 591,272L596,272ZM272,268C275,265 282,252 282,251C282,248 278,241 274,236C271,232 271,232 261,232C251,232 250,232 248,234C245,238 239,249 239,250C239,252 247,266 249,269C250,270 253,270 260,270C269,270 271,270 272,268ZM426,268C429,264 435,253 435,250C435,248 428,235 425,233C424,231 422,231 413,231C403,232 403,232 397,240C394,245 392,250 392,250C392,251 394,254 396,258C404,271 402,270 413,270C423,270 424,270 426,268ZM563,270L563,232L560,231C558,231 556,231 555,232L554,233L555,234C555,235 553,239 549,243C545,248 546,249 552,261L557,270L563,270ZM349,267C352,264 359,252 359,250C359,249 351,235 349,233C348,231 346,231 338,231C328,231 327,231 325,233C322,236 316,248 316,250C316,252 322,264 325,267C327,269 328,269 338,269C346,269 348,269 349,267ZM504,259C507,255 509,251 509,250C509,250 507,246 504,242C500,234 500,234 491,234C481,234 481,234 476,242C471,251 471,250 478,261C481,267 481,267 490,267C500,267 500,267 504,259ZM311,245C313,243 321,229 321,228C321,228 319,223 316,218C310,210 310,210 299,210C288,210 288,210 282,218C279,223 277,228 277,228C277,229 285,243 287,245C288,247 290,247 299,247C308,247 310,247 311,245ZM392,239C395,234 397,230 397,229C397,227 392,218 388,212C386,209 386,209 376,209C364,209 365,209 358,220C353,228 353,229 356,233C357,234 358,236 358,236C358,237 359,239 361,242C364,247 364,247 376,247C387,247 387,247 392,239ZM466,240C467,237 470,233 471,232C474,229 474,227 470,220C463,208 464,209 452,209C441,210 441,210 435,219C432,223 430,228 430,228C430,229 439,244 440,246C441,247 444,247 452,247C462,247 462,247 466,240ZM545,239C548,234 550,229 550,228C550,227 548,222 545,218C540,210 540,210 529,209C517,209 518,208 512,219C508,226 507,228 509,230C510,231 512,235 514,238C516,242 518,246 519,246C519,247 524,247 530,247C541,247 541,247 545,239ZM235,243C237,242 239,238 241,234C244,228 244,228 241,223C240,220 237,215 236,213C233,210 233,209 226,209C219,209 217,209 216,211C214,212 212,213 211,214C208,215 201,225 201,228C201,231 205,239 209,243C212,246 212,246 223,246C232,246 233,246 235,243ZM354,216C357,211 359,207 359,206C359,205 351,191 349,189C348,187 346,187 337,187C326,187 326,187 321,196C318,200 316,205 316,206C316,208 319,213 325,223C326,225 327,225 337,225C349,225 349,225 354,216ZM430,217C433,212 435,208 435,206C435,205 433,200 430,196C425,188 425,188 414,188C403,188 403,188 397,196C394,201 392,205 392,206C392,207 399,220 402,223C403,225 405,225 414,225C425,225 425,225 430,217ZM273,221C277,218 282,209 282,207C282,206 280,202 278,198C272,186 273,187 261,187C250,188 250,188 247,191C246,193 243,197 242,201C239,206 239,206 241,211C243,214 246,218 247,220C250,224 250,224 260,224C270,224 271,224 273,221ZM503,222C504,221 506,218 508,214C512,208 513,204 511,203C511,202 509,200 508,197C503,187 502,187 490,187C479,187 479,187 474,196C471,201 469,205 469,206C469,208 475,219 478,222C479,224 481,224 491,224C500,224 502,224 503,222ZM562,224L562,188L557,188L556,190C556,191 554,194 552,198C550,202 548,205 548,206C548,207 550,211 553,216L557,224L562,224ZM315,196C317,192 319,188 319,187L319,186L279,186L279,187C279,188 285,199 287,201C288,203 290,203 299,203C310,203 310,203 315,196ZM465,200C467,197 472,189 472,187L472,186L432,186L432,187C432,189 436,195 439,199C442,202 442,202 453,202C462,202 463,202 465,200ZM236,194C238,191 240,188 240,187L205,187L205,188C205,188 206,190 208,193C210,196 211,197 213,197C214,197 216,198 217,199C218,201 219,201 225,201C232,201 232,201 236,194ZM388,195C390,192 392,188 392,188L392,187L359,187L359,188C359,188 361,191 363,195C366,201 366,201 376,201C385,201 385,201 388,195ZM542,195C544,191 546,188 546,188L546,187L512,187C512,188 514,191 516,195C519,201 519,201 529,201C538,201 538,201 542,195ZM161,248L161,227L162,209L170,208L179,208L179,249L162,249L161,248ZM548,246C549,245 549,244 550,244L549,246C548,247 548,248 547,248L548,246Z" style="fill:rgb(38,104,147);fill-rule:nonzero;"/>
                            <g transform="matrix(1,0,0,1.01064,220,140.482)">
                                <path d="M-86,41.102L394,41.081L394,135.081L-86,135.071L-86,41.102ZM253,131.081C254,129.081 247,116.081 244,113.081C241,110.081 242,109.081 246,102.081C248,99.081 251,94.081 253,90.081C256,84.081 256,84.081 270,84.081C285,84.081 285,84.081 288,91.081C291,97.081 295,103.081 298,108.081L299,109.081L298,111.081C295,115.081 287,130.081 287,131.081L287,132.081L328,132.081C351,132.081 374,132.081 380,131.081L391,131.081L391,45.081L379,45.081C364,44.081 -58,44.081 -72,45.081L-83,45.081L-83,88.081C-84,111.081 -84,130.081 -84,131.081C-83,132.081 -32,132.081 85,132.081L253,132.081L253,131.081ZM251,113.081L250,113.081L253,120.081C259,130.081 258,129.081 270,129.081C279,129.081 281,129.081 282,127.081C285,124.081 292,112.081 292,109.081C292,108.081 290,103.081 287,99.081C282,90.081 282,90.081 270,90.081C258,90.081 258,90.081 253,100.081L252,103.081L254,101.081L256,100.081L254,102.081C251,105.081 250,108.081 250,110.081C250,110.519 250.191,110.956 250.407,111.394L250.593,111.769C250.793,112.175 250.973,112.581 250.997,112.987L251,113.081Z" style="fill:rgb(84,157,203);fill-rule:nonzero;"/>
                            </g>
                        </g>
                    </g>
                </g>
            </g>
            <g id="Screenshot-2021-06-16-at-5.14.svg6" serif:id="Screenshot-2021-06-16-at-5.14.svg" transform="matrix(0.808254,0,0,0.808254,2226.84,2709.44)">
                <g transform="matrix(1,0,0,1,-43.2358,31.1315)">
                    <clipPath id="_clip7">
                        <rect x="-196.764" y="-78.632" width="480" height="95"/>
                    </clipPath>
                    <g clip-path="url(#_clip7)">
                        <g transform="matrix(1,0,0,1,-330.764,-260.632)">
                            <rect x="137" y="185" width="474" height="88" style="fill:rgb(6,20,72);fill-rule:nonzero;"/>
                            <path d="M136,274L136,184L612,184L612,274L136,274ZM161,272L161,252L182,252L182,206L172,205L162,205L161,196L161,187L152,187L151,209L151,232L144,232L138,233L138,242L144,242L151,243L151,256C151,263 151,270 152,271L152,272L161,272ZM196,269C197,268 199,263 201,259C204,255 206,251 206,250C206,250 203,245 200,239C197,234 194,229 194,228C194,228 196,224 198,220C202,213 203,212 203,206C202,199 201,196 196,189C194,187 193,186 190,186L186,186L186,272L195,272L196,269ZM243,271C243,270 236,257 234,255C233,253 231,253 223,253C214,253 212,253 211,255C209,257 201,270 201,271L201,272L243,272L243,271ZM320,271C320,270 318,266 315,262C310,254 310,254 300,253C292,253 289,253 288,255C286,256 278,269 278,271L278,272L320,272L320,271ZM397,271C397,271 389,257 387,255C386,253 384,253 376,253C367,253 365,253 364,255C361,258 355,269 355,271L355,272L397,272L397,271ZM468,267C461,254 462,255 452,255C442,255 442,255 440,260C438,263 436,266 435,268L433,271L433,270L432,270L432,271C433,272 438,272 452,272L471,272L468,267ZM550,271C550,270 542,256 540,255C539,253 537,253 528,253C519,254 519,254 515,260C514,263 512,267 511,268C510,269 509,270 509,271L509,272L550,272L550,271ZM596,272L596,187L591,186L586,186L586,228C586,252 586,271 587,271C587,272 589,272 591,272L596,272ZM272,268C275,265 282,252 282,251C282,248 278,241 274,236C271,232 271,232 261,232C251,232 250,232 248,234C245,238 239,249 239,250C239,252 247,266 249,269C250,270 253,270 260,270C269,270 271,270 272,268ZM426,268C429,264 435,253 435,250C435,248 428,235 425,233C424,231 422,231 413,231C403,232 403,232 397,240C394,245 392,250 392,250C392,251 394,254 396,258C404,271 402,270 413,270C423,270 424,270 426,268ZM563,270L563,232L560,231C558,231 556,231 555,232L554,233L555,234C555,235 553,239 549,243C545,248 546,249 552,261L557,270L563,270ZM349,267C352,264 359,252 359,250C359,249 351,235 349,233C348,231 346,231 338,231C328,231 327,231 325,233C322,236 316,248 316,250C316,252 322,264 325,267C327,269 328,269 338,269C346,269 348,269 349,267ZM504,259C507,255 509,251 509,250C509,250 507,246 504,242C500,234 500,234 491,234C481,234 481,234 476,242C471,251 471,250 478,261C481,267 481,267 490,267C500,267 500,267 504,259ZM311,245C313,243 321,229 321,228C321,228 319,223 316,218C310,210 310,210 299,210C288,210 288,210 282,218C279,223 277,228 277,228C277,229 285,243 287,245C288,247 290,247 299,247C308,247 310,247 311,245ZM392,239C395,234 397,230 397,229C397,227 392,218 388,212C386,209 386,209 376,209C364,209 365,209 358,220C353,228 353,229 356,233C357,234 358,236 358,236C358,237 359,239 361,242C364,247 364,247 376,247C387,247 387,247 392,239ZM466,240C467,237 470,233 471,232C474,229 474,227 470,220C463,208 464,209 452,209C441,210 441,210 435,219C432,223 430,228 430,228C430,229 439,244 440,246C441,247 444,247 452,247C462,247 462,247 466,240ZM545,239C548,234 550,229 550,228C550,227 548,222 545,218C540,210 540,210 529,209C517,209 518,208 512,219C508,226 507,228 509,230C510,231 512,235 514,238C516,242 518,246 519,246C519,247 524,247 530,247C541,247 541,247 545,239ZM235,243C237,242 239,238 241,234C244,228 244,228 241,223C240,220 237,215 236,213C233,210 233,209 226,209C219,209 217,209 216,211C214,212 212,213 211,214C208,215 201,225 201,228C201,231 205,239 209,243C212,246 212,246 223,246C232,246 233,246 235,243ZM354,216C357,211 359,207 359,206C359,205 351,191 349,189C348,187 346,187 337,187C326,187 326,187 321,196C318,200 316,205 316,206C316,208 319,213 325,223C326,225 327,225 337,225C349,225 349,225 354,216ZM430,217C433,212 435,208 435,206C435,205 433,200 430,196C425,188 425,188 414,188C403,188 403,188 397,196C394,201 392,205 392,206C392,207 399,220 402,223C403,225 405,225 414,225C425,225 425,225 430,217ZM273,221C277,218 282,209 282,207C282,206 280,202 278,198C272,186 273,187 261,187C250,188 250,188 247,191C246,193 243,197 242,201C239,206 239,206 241,211C243,214 246,218 247,220C250,224 250,224 260,224C270,224 271,224 273,221ZM503,222C504,221 506,218 508,214C512,208 513,204 511,203C511,202 509,200 508,197C503,187 502,187 490,187C479,187 479,187 474,196C471,201 469,205 469,206C469,208 475,219 478,222C479,224 481,224 491,224C500,224 502,224 503,222ZM562,224L562,188L557,188L556,190C556,191 554,194 552,198C550,202 548,205 548,206C548,207 550,211 553,216L557,224L562,224ZM315,196C317,192 319,188 319,187L319,186L279,186L279,187C279,188 285,199 287,201C288,203 290,203 299,203C310,203 310,203 315,196ZM465,200C467,197 472,189 472,187L472,186L432,186L432,187C432,189 436,195 439,199C442,202 442,202 453,202C462,202 463,202 465,200ZM236,194C238,191 240,188 240,187L205,187L205,188C205,188 206,190 208,193C210,196 211,197 213,197C214,197 216,198 217,199C218,201 219,201 225,201C232,201 232,201 236,194ZM388,195C390,192 392,188 392,188L392,187L359,187L359,188C359,188 361,191 363,195C366,201 366,201 376,201C385,201 385,201 388,195ZM542,195C544,191 546,188 546,188L546,187L512,187C512,188 514,191 516,195C519,201 519,201 529,201C538,201 538,201 542,195ZM161,248L161,227L162,209L170,208L179,208L179,249L162,249L161,248ZM548,246C549,245 549,244 550,244L549,246C548,247 548,248 547,248L548,246Z" style="fill:rgb(38,104,147);fill-rule:nonzero;"/>
                            <g transform="matrix(1,0,0,1.01064,220,140.482)">
                                <path d="M-86,41.102L394,41.081L394,135.081L-86,135.071L-86,41.102ZM253,131.081C254,129.081 247,116.081 244,113.081C241,110.081 242,109.081 246,102.081C248,99.081 251,94.081 253,90.081C256,84.081 256,84.081 270,84.081C285,84.081 285,84.081 288,91.081C291,97.081 295,103.081 298,108.081L299,109.081L298,111.081C295,115.081 287,130.081 287,131.081L287,132.081L328,132.081C351,132.081 374,132.081 380,131.081L391,131.081L391,45.081L379,45.081C364,44.081 -58,44.081 -72,45.081L-83,45.081L-83,88.081C-84,111.081 -84,130.081 -84,131.081C-83,132.081 -32,132.081 85,132.081L253,132.081L253,131.081ZM251,113.081L250,113.081L253,120.081C259,130.081 258,129.081 270,129.081C279,129.081 281,129.081 282,127.081C285,124.081 292,112.081 292,109.081C292,108.081 290,103.081 287,99.081C282,90.081 282,90.081 270,90.081C258,90.081 258,90.081 253,100.081L252,103.081L254,101.081L256,100.081L254,102.081C251,105.081 250,108.081 250,110.081C250,110.519 250.191,110.956 250.407,111.394L250.593,111.769C250.793,112.175 250.973,112.581 250.997,112.987L251,113.081Z" style="fill:rgb(84,157,203);fill-rule:nonzero;"/>
                            </g>
                        </g>
                    </g>
                </g>
            </g>
        </g>
        <g id="The-Men-..." serif:id="The Men ..." transform="matrix(1.06823,0,0,1.13428,-113.941,-386.426)">
            <g transform="matrix(0.967441,0,0,0.967441,-9.17059,258.157)">
                <g transform="matrix(257.494,0,0,257.494,630.148,2898.81)">
                    <path d="M0.249,-0.55L0.281,-0.538L0.312,-0.336L0.214,-0.341L0.249,-0.55ZM0.188,-0.237L0.338,-0.185L0.385,-0.02L0.532,-0.014L0.333,-0.732L0.235,-0.758L0.009,-0.061L0.133,0.004L0.188,-0.237Z" style="fill-rule:nonzero;"/>
                </g>
                <g transform="matrix(257.494,0,0,257.494,739.583,2898.81)">
                    <path d="M0.32,-0.68L0.178,-0.681L0.017,-0.664L-0.003,-0.573L0.184,-0.547C0.194,-0.459 0.237,-0.097 0.214,-0.044L0.342,0.024L0.343,-0.084L0.294,-0.536L0.476,-0.537C0.467,-0.551 0.493,-0.68 0.494,-0.691L0.32,-0.68Z" style="fill-rule:nonzero;"/>
                </g>
            </g>
            <g transform="matrix(0.856283,0,0,0.965521,72.0774,84.7324)">
                <g transform="matrix(257.494,0,0,257.494,610.34,2823.05)">
                    <path d="M0.66,-0.017L0.679,-0.771L0.499,-0.673L0.504,-0.36L0.376,-0.48L0.295,-0.502L0.18,-0.327L0.248,-0.732L0.024,-0.67L0.028,-0.097L0.181,0.006L0.326,-0.241L0.521,-0.017L0.66,-0.017Z" style="fill-rule:nonzero;"/>
                </g>
                <g transform="matrix(257.494,0,0,257.494,795.735,2823.05)">
                    <path d="M0.01,-0.706L0.03,-0.079L0.176,0.018L0.177,-0.193L0.352,-0.197L0.376,-0.039L0.544,0.026L0.521,-0.689L0.361,-0.756L0.374,-0.306L0.157,-0.369L0.154,-0.636L0.01,-0.706Z" style="fill-rule:nonzero;"/>
                </g>
                <g transform="matrix(257.494,0,0,257.494,947.914,2823.05)">
                    <path d="M0.105,-0.731L0.028,-0.617L0.023,-0.077L0.126,-0.023L0.401,0.017L0.532,-0.15L0.488,-0.641L0.447,-0.714L0.105,-0.731ZM0.186,-0.556L0.373,-0.589L0.397,-0.52L0.383,-0.133L0.375,-0.125L0.226,-0.118L0.192,-0.121L0.15,-0.171L0.142,-0.502L0.186,-0.556Z" style="fill-rule:nonzero;"/>
                </g>
            </g>
            <g transform="matrix(0.837362,0,0,1.05703,-188.912,33.7866)">
                <g transform="matrix(322.169,0,0,322.169,1270.68,2878.34)">
                    <path d="M0.323,-0.508L0.476,-0.518L0.475,-0.675L0.079,-0.71L-0.005,-0.491L0.006,-0.238L0.07,-0.008L0.201,-0.01L0.501,-0.109L0.432,-0.256L0.291,-0.15L0.153,-0.122L0.105,-0.312L0.114,-0.487L0.16,-0.571L0.328,-0.549L0.323,-0.508Z" style="fill-rule:nonzero;"/>
                </g>
                <g transform="matrix(322.169,0,0,322.169,1431.76,2878.34)">
                    <path d="M0.494,0.007L0.532,-0.167L0.153,-0.113C0.139,-0.234 0.182,-0.654 0.183,-0.719L0.038,-0.709L0.032,-0.003L0.131,-0.006L0.494,0.007Z" style="fill-rule:nonzero;"/>
                </g>
                <g transform="matrix(322.169,0,0,322.169,1595.75,2878.34)">
                    <path d="M0.363,-0.638L0.392,-0.198L0.398,-0.171L0.159,-0.13L0.218,-0.256L0.141,-0.709L0.03,-0.752L0.008,-0.127L0.025,-0.068L0.529,0.014L0.538,-0.198L0.523,-0.713L0.363,-0.638Z" style="fill-rule:nonzero;"/>
                </g>
                <g transform="matrix(322.169,0,0,322.169,1773.58,2878.34)">
                    <path d="M0.229,-0.632L0.358,-0.639L0.357,-0.444L0.495,-0.482L0.467,-0.709L0.121,-0.762L0.029,-0.667L0.03,-0.415L0.096,-0.333L0.186,-0.323L0.315,-0.226L0.323,-0.1L0.291,-0.071L0.135,-0.134L0.191,-0.234L0.046,-0.218L0.01,-0.027L0.36,-0.004L0.475,-0.034L0.462,-0.318L0.406,-0.325L0.287,-0.409L0.209,-0.442L0.15,-0.47L0.178,-0.597L0.229,-0.632Z" style="fill-rule:nonzero;"/>
                </g>
                <g transform="matrix(322.169,0,0,322.169,1934.67,2878.34)">
                    <path d="M0.32,-0.68L0.178,-0.681L0.017,-0.664L-0.003,-0.573L0.184,-0.547C0.194,-0.459 0.237,-0.097 0.214,-0.044L0.342,0.024L0.343,-0.084L0.294,-0.536L0.476,-0.537C0.467,-0.551 0.493,-0.68 0.494,-0.691L0.32,-0.68Z" style="fill-rule:nonzero;"/>
                </g>
                <g transform="matrix(322.169,0,0,322.169,2098.65,2878.34)">
                    <path d="M0.48,-0.581L0.503,-0.712L0.013,-0.637L0.016,-0.035L0.444,0.031L0.495,-0.136L0.11,-0.15L0.121,-0.289L0.376,-0.295L0.378,-0.42L0.121,-0.395L0.131,-0.549L0.48,-0.581Z" style="fill-rule:nonzero;"/>
                </g>
                <g transform="matrix(322.169,0,0,322.169,2259.74,2878.34)">
                    <path d="M0.511,-0.293L0.533,-0.426L0.519,-0.583L0.431,-0.677L0.05,-0.681C0.016,-0.505 0.051,-0.229 0.025,-0.021L0.152,-0.019L0.146,-0.267C0.18,-0.282 0.239,-0.276 0.246,-0.267L0.381,-0.01L0.515,0.002L0.396,-0.267L0.511,-0.293ZM0.155,-0.577L0.367,-0.57L0.41,-0.508L0.408,-0.439L0.396,-0.384L0.246,-0.373L0.151,-0.39L0.156,-0.47L0.154,-0.506L0.155,-0.577Z" style="fill-rule:nonzero;"/>
                </g>
                <g transform="matrix(322.169,0,0,322.169,2441.12,2878.34)">
                    <path d="M0.229,-0.632L0.358,-0.639L0.357,-0.444L0.495,-0.482L0.467,-0.709L0.121,-0.762L0.029,-0.667L0.03,-0.415L0.096,-0.333L0.186,-0.323L0.315,-0.226L0.323,-0.1L0.291,-0.071L0.135,-0.134L0.191,-0.234L0.046,-0.218L0.01,-0.027L0.36,-0.004L0.475,-0.034L0.462,-0.318L0.406,-0.325L0.287,-0.409L0.209,-0.442L0.15,-0.47L0.178,-0.597L0.229,-0.632Z" style="fill-rule:nonzero;"/>
                </g>
            </g>
            <g transform="matrix(0.875333,0,0,1,-571.431,157.634)">
                <g transform="matrix(322.169,0,0,322.169,1813.31,2622.16)">
                    <path d="M0.229,-0.632L0.358,-0.639L0.357,-0.444L0.495,-0.482L0.467,-0.709L0.121,-0.762L0.029,-0.667L0.03,-0.415L0.096,-0.333L0.186,-0.323L0.315,-0.226L0.323,-0.1L0.291,-0.071L0.135,-0.134L0.191,-0.234L0.046,-0.218L0.01,-0.027L0.36,-0.004L0.475,-0.034L0.462,-0.318L0.406,-0.325L0.287,-0.409L0.209,-0.442L0.15,-0.47L0.178,-0.597L0.229,-0.632Z" style="fill-rule:nonzero;"/>
                </g>
                <g transform="matrix(322.169,0,0,322.169,1974.39,2622.16)">
                    <path d="M0.32,-0.68L0.178,-0.681L0.017,-0.664L-0.003,-0.573L0.184,-0.547C0.194,-0.459 0.237,-0.097 0.214,-0.044L0.342,0.024L0.343,-0.084L0.294,-0.536L0.476,-0.537C0.467,-0.551 0.493,-0.68 0.494,-0.691L0.32,-0.68Z" style="fill-rule:nonzero;"/>
                </g>
                <g transform="matrix(322.169,0,0,322.169,2119.04,2622.16)">
                    <path d="M0.249,-0.55L0.281,-0.538L0.312,-0.336L0.214,-0.341L0.249,-0.55ZM0.188,-0.237L0.338,-0.185L0.385,-0.02L0.532,-0.014L0.333,-0.732L0.235,-0.758L0.009,-0.061L0.133,0.004L0.188,-0.237Z" style="fill-rule:nonzero;"/>
                </g>
                <g transform="matrix(322.169,0,0,322.169,2297.85,2622.16)">
                    <path d="M0.511,-0.293L0.533,-0.426L0.519,-0.583L0.431,-0.677L0.05,-0.681C0.016,-0.505 0.051,-0.229 0.025,-0.021L0.152,-0.019L0.146,-0.267C0.18,-0.282 0.239,-0.276 0.246,-0.267L0.381,-0.01L0.515,0.002L0.396,-0.267L0.511,-0.293ZM0.155,-0.577L0.367,-0.57L0.41,-0.508L0.408,-0.439L0.396,-0.384L0.246,-0.373L0.151,-0.39L0.156,-0.47L0.154,-0.506L0.155,-0.577Z" style="fill-rule:nonzero;"/>
                </g>
                <g transform="matrix(322.169,0,0,322.169,2485.67,2622.16)">
                    <path d="M0.48,-0.581L0.503,-0.712L0.013,-0.637L0.016,-0.035L0.444,0.031L0.495,-0.136L0.11,-0.15L0.121,-0.289L0.376,-0.295L0.378,-0.42L0.121,-0.395L0.131,-0.549L0.48,-0.581Z" style="fill-rule:nonzero;"/>
                </g>
            </g>
            <g transform="matrix(3.23009,0,0,3.23009,-2534.9,-4970.75)">
                <g transform="matrix(108.064,0,0,108.064,1105.48,2317.38)">
                    <path d="M0.007,-0.715L0.028,-0.081L0.186,0.017L0.184,-0.396L0.265,-0.163L0.394,-0.185L0.467,-0.372L0.515,-0.035L0.659,0.016L0.663,-0.793L0.472,-0.69L0.318,-0.437L0.211,-0.717L0.007,-0.715Z" style="fill-rule:nonzero;"/>
                </g>
                <g transform="matrix(108.064,0,0,108.064,1179.29,2317.38)">
                    <path d="M0.48,-0.581L0.503,-0.712L0.013,-0.637L0.016,-0.035L0.444,0.031L0.495,-0.136L0.11,-0.15L0.121,-0.289L0.376,-0.295L0.378,-0.42L0.121,-0.395L0.131,-0.549L0.48,-0.581Z" style="fill-rule:nonzero;"/>
                </g>
                <g transform="matrix(108.064,0,0,108.064,1233.32,2317.38)">
                    <path d="M0.01,-0.707L0.028,-0.08L0.168,0.002C0.162,-0.087 0.141,-0.351 0.136,-0.364L0.307,-0.032L0.46,0.014L0.492,-0.688L0.34,-0.716L0.307,-0.316L0.131,-0.643L0.01,-0.707Z" style="fill-rule:nonzero;"/>
                </g>
            </g>
            <g transform="matrix(1.30089,0,0,1.30089,-176.486,-1267.03)">
                <g transform="matrix(200,0,0,200,600.688,2932.91)">
                    <path d="M0.32,-0.68L0.178,-0.681L0.017,-0.664L-0.003,-0.573L0.184,-0.547C0.194,-0.459 0.237,-0.097 0.214,-0.044L0.342,0.024L0.343,-0.084L0.294,-0.536L0.476,-0.537C0.467,-0.551 0.493,-0.68 0.494,-0.691L0.32,-0.68Z" style="fill-rule:nonzero;"/>
                </g>
                <g transform="matrix(200,0,0,200,702.488,2932.91)">
                    <path d="M0.01,-0.706L0.03,-0.079L0.176,0.018L0.177,-0.193L0.352,-0.197L0.376,-0.039L0.544,0.026L0.521,-0.689L0.361,-0.756L0.374,-0.306L0.157,-0.369L0.154,-0.636L0.01,-0.706Z" style="fill-rule:nonzero;"/>
                </g>
                <g transform="matrix(200,0,0,200,820.688,2932.91)">
                    <path d="M0.48,-0.581L0.503,-0.712L0.013,-0.637L0.016,-0.035L0.444,0.031L0.495,-0.136L0.11,-0.15L0.121,-0.289L0.376,-0.295L0.378,-0.42L0.121,-0.395L0.131,-0.549L0.48,-0.581Z" style="fill-rule:nonzero;"/>
                </g>
            </g>
        </g>
        <g id="the-men-who-stare-at-goats-50706b08a223c_vectorized.svg" transform="matrix(2.7683,0,0,2.93948,259.131,2656.61)">
            <g transform="matrix(1,0,0,1,-98,-158.958)">
                <clipPath id="_clip8">
                    <rect x="10" y="24.916" width="176" height="268.084"/>
                </clipPath>
                <g clip-path="url(#_clip8)">
                    <path d="M48,292C46,292 43,291 42,290C40,287 40,279 42,274C44,269 44,264 42,244C40,233 40,232 37,227C35,225 33,222 33,222C33,221 32,220 32,219L31,218L26,246C22,269 21,274 19,276C16,278 14,279 12,277C12,276 13,264 16,241C18,222 20,203 20,199C20,194 21,190 21,189C22,187 23,181 24,171C25,155 25,155 21,150C10,138 10,139 10,127C10,115 10,115 13,111C15,108 17,104 19,102C20,100 23,95 25,92C28,89 31,84 33,81C35,77 35,76 40,74C45,72 60,68 63,68C63,68 65,67 67,65C71,62 71,62 70,57C70,54 69,50 68,49C65,43 68,35 76,29C80,26 81,25 87,25L98,25C107,24 112,32 110,45C109,48 109,52 109,53C110,53 109,57 107,60C106,64 105,67 105,69L105,71L110,72C117,74 122,80 124,86C125,89 126,91 129,92C131,93 132,95 132,97C132,101 138,110 141,110C142,110 143,111 144,112C145,112 146,113 147,113C148,113 150,114 150,115L152,116L151,119L149,121L151,124C152,126 154,128 156,129C157,130 159,134 161,139C164,143 166,146 167,146C167,146 170,147 173,149C180,153 183,164 180,174C179,176 177,184 177,190C176,197 175,203 175,204C173,206 168,221 167,226C167,229 165,232 164,234C162,239 160,252 161,257C162,259 163,262 164,263C165,265 166,266 166,267C166,269 170,271 174,271C179,271 183,274 185,279L186,282L184,284C182,286 181,286 172,286C166,286 160,286 158,285C157,284 150,283 143,283C133,283 130,282 128,281C127,279 125,261 123,224L123,208L121,208C120,209 117,209 115,209L109,209L101,240C97,257 93,273 92,274C91,276 88,277 86,274C85,273 85,268 89,243C92,226 94,211 95,210L95,208L64,208L64,212C63,219 62,228 63,230C64,230 64,234 64,239C65,253 67,265 68,274C71,285 71,288 67,291C65,293 59,293 48,292ZM137,236L137,215C137,206 137,204 139,199L141,194L141,193L140,193L136,194L133,196L133,209C134,217 134,229 135,238L135,253L136,250C137,249 137,242 137,236ZM135,154C137,154 141,153 143,152L148,151L148,149L147,149C147,149 144,147 142,146C139,144 136,142 135,142C134,142 132,141 131,139C130,137 128,135 128,135L127,135L125,131C124,128 122,126 120,127C120,127 121,130 122,132C122,135 123,138 122,139C121,141 121,154 122,156L123,157L127,156C129,156 132,155 135,154ZM38,131L38,130L37,132C36,133 36,135 37,135L37,136L38,134C39,133 39,131 38,131Z" style="fill:rgb(0,125,184);fill-rule:nonzero;"/>
                    <path d="M48,292C45,292 43,291 42,289L40,286L40,285L41,285L42,287C43,290 46,291 58,291C64,291 65,291 67,289C69,287 69,287 68,277C67,271 65,263 65,258C64,253 64,245 63,240C62,227 61,217 62,211L63,207L96,207L96,208C96,209 95,214 94,220L92,230L92,228C92,226 93,222 94,217C94,212 95,208 95,208L64,208L64,212C63,219 62,228 63,230C64,230 64,234 64,239C65,253 67,265 68,274C71,285 71,288 67,291C65,293 63,293 58,293C54,293 50,292 48,292ZM165,286C161,286 158,285 157,284C156,284 150,283 143,283C133,283 130,282 128,281C127,279 125,261 123,224L123,208L121,208C120,209 117,209 115,209L109,209L101,240C97,257 93,273 92,274C91,276 88,277 86,274C85,273 85,271 87,261L88,249L89,249C89,250 88,255 87,261C86,271 86,272 87,274L89,275L90,274C91,273 95,258 100,241C104,223 108,208 109,208C109,207 112,207 116,207L124,207L124,218C125,224 125,239 126,252C127,264 127,275 128,277C129,281 132,282 144,282C149,282 156,283 158,284C165,286 181,286 183,283L185,282L183,278C181,273 180,273 173,272C168,272 167,271 165,267C160,259 159,256 159,250C160,240 161,237 164,233C165,231 166,228 166,227C166,223 171,207 173,204C174,202 175,196 176,189C176,183 178,175 179,173C180,167 180,158 177,156L176,155L176,154L177,153L176,152C175,151 167,147 166,147C165,147 163,145 161,140C159,137 156,131 153,128C148,123 147,121 149,120C150,119 150,118 150,117L150,115L148,114C147,114 145,113 144,112C142,112 141,111 140,111C137,111 131,102 131,97C131,96 130,94 127,93C125,91 124,89 123,87C121,81 116,75 109,73L104,72L104,69C104,67 105,63 106,61C107,58 108,54 108,51C108,48 108,44 109,42C110,40 110,37 108,34C106,27 104,26 90,26L79,27L81,26C82,25 87,25 91,25L101,25C101,25 103,25 105,26C110,29 112,36 110,45C109,48 109,52 109,53C110,53 109,57 107,60C106,64 105,67 105,69L105,71L110,72C117,74 122,80 124,86C125,89 126,91 129,92C131,93 132,95 132,97C132,101 138,110 141,110C142,110 143,111 144,112C145,112 146,113 147,113C148,113 150,114 150,115L152,116L151,119L149,121L151,124C152,126 154,128 156,129C157,130 159,134 161,139C164,143 166,146 167,146C167,146 170,147 173,149C180,153 183,164 180,174C179,176 177,184 177,190C176,197 175,203 175,204C173,206 168,221 167,226C167,229 165,232 164,234C162,239 160,252 161,257C162,259 163,262 164,263C165,265 166,266 166,267C166,269 170,271 174,271C179,271 183,274 185,279L186,282L184,284C182,286 174,287 165,286ZM41,282C40,280 40,278 41,277L42,275L42,284L41,284L41,282ZM12,277C12,276 12,271 13,263L15,250L14,256C14,260 14,265 13,269C13,276 14,278 17,276C19,275 20,273 25,242C27,228 30,216 30,216L32,217C33,218 34,220 34,221C34,222 36,225 38,227C41,231 41,232 43,243C44,249 44,258 44,263L45,272L44,264C44,259 43,250 42,244C40,233 40,232 37,227C35,225 33,222 33,222C33,221 32,220 32,219L31,218L26,246C22,269 21,274 19,276C16,278 14,279 12,277ZM134,251C133,248 133,233 132,220C132,195 132,195 135,194C137,193 140,192 141,192L142,192L142,196L141,194L140,193L137,194L133,196L133,209C134,217 134,229 135,238L135,253L137,249L136,252C136,254 135,256 135,257L134,258L134,251ZM16,242C16,237 16,233 17,233L17,237C17,239 16,243 16,245L15,250L16,242ZM89,246C89,245 89,242 90,240L91,236L91,238C91,239 91,242 90,245L89,249L89,246ZM137,249L137,215C136,210 137,205 137,204L138,203L138,229C139,232 139,238 138,242L137,249ZM91,236L91,230L92,231L92,234L91,236ZM17,230C17,228 18,222 18,218L20,209L20,212C20,214 19,219 19,224L17,233L17,230ZM20,199C20,194 20,190 21,190L22,189L21,196L21,206L20,209L20,199ZM140,198L140,196L141,197C141,198 141,199 140,199L139,200L140,198ZM24,174C24,167 24,161 25,161L25,169C25,174 24,180 24,182L23,187L24,174ZM25,157C25,156 24,154 23,153C22,152 19,148 16,145C10,138 10,138 10,127C10,118 10,115 12,113L13,112L12,114C11,115 11,121 11,127C11,138 11,138 15,143C18,145 21,149 23,151C25,153 26,155 26,157L26,160L25,160L25,157ZM121,156C120,155 120,153 120,144L120,129L119,125L121,126C124,127 126,128 126,130C126,131 127,133 128,134C129,135 131,137 132,138C133,140 135,141 136,141C138,141 140,142 141,143C142,145 145,147 147,148C149,149 151,150 151,150L151,151L148,151C147,152 146,152 145,152L145,151L148,151L148,149L147,149C147,149 144,147 142,146C139,144 136,142 135,142C134,142 132,141 131,139C130,137 128,135 128,135L127,135L125,131C124,128 122,126 120,127C120,127 121,130 122,132C122,135 123,138 122,139C122,140 121,144 121,148C122,154 122,155 123,157L125,158L124,158C124,158 122,157 121,156ZM127,156L129,156L131,157L126,157L127,156ZM131,156L131,155L133,155L136,154L135,155C135,156 134,156 133,156L131,156ZM137,154C137,153 139,153 141,153L145,152L143,153C142,154 140,154 139,154L137,154ZM36,136C34,134 35,132 37,129L39,127L39,129C40,131 40,133 39,134L38,137C38,137 37,136 36,136ZM38,131L38,130L37,132C36,133 36,135 37,135L37,136L38,134C39,133 39,131 38,131ZM13,111C13,110 14,110 15,109L17,108L15,109C14,110 14,111 13,111ZM28,89C28,88 29,88 30,87L32,86L30,87C29,88 29,89 28,89ZM37,76L37,75L39,75L41,74L40,75C40,76 39,76 38,76L37,76ZM43,73C44,72 45,72 46,72L48,72L46,73C44,73 43,74 43,74L42,74L43,73ZM52,70L54,70L56,71L51,71L52,70ZM57,69L59,69L59,70L56,70L57,69ZM62,68C63,68 65,67 66,66L67,65L65,69L60,69L62,68ZM70,63C71,61 70,53 68,49C67,46 67,40 68,38L69,37L68,41C68,43 68,46 69,49C72,55 72,62 70,63L69,64L70,63Z" style="fill:rgb(253,253,253);fill-rule:nonzero;"/>
                </g>
            </g>
        </g>
    </g>
</svg>
